<svg width="400" height="400" xmlns="http://www.w3.org/2000/svg">
  <defs>
    <pattern id="sandPattern" patternUnits="userSpaceOnUse" width="100" height="100">
      <rect width="100" height="100" fill="#C2A57C" />
      <g fill="#E0C9A6" opacity="0.3">
        <circle cx="10" cy="10" r="1" />
        <circle cx="25" cy="15" r="1.5" />
        <circle cx="40" cy="20" r="1" />
        <circle cx="55" cy="25" r="2" />
        <circle cx="70" cy="30" r="1" />
        <circle cx="85" cy="35" r="1.5" />
        <circle cx="15" cy="45" r="2" />
        <circle cx="30" cy="50" r="1" />
        <circle cx="45" cy="55" r="1.5" />
        <circle cx="60" cy="60" r="1" />
        <circle cx="75" cy="65" r="2" />
        <circle cx="90" cy="70" r="1" />
        <circle cx="5" cy="80" r="1.5" />
        <circle cx="20" cy="85" r="1" />
        <circle cx="35" cy="90" r="2" />
        <circle cx="50" cy="95" r="1" />
        <circle cx="65" cy="5" r="1.5" />
        <circle cx="80" cy="10" r="2" />
        <circle cx="95" cy="15" r="1" />
      </g>
      <g fill="#4A3B31" opacity="0.1">
        <circle cx="5" cy="5" r="1" />
        <circle cx="20" cy="10" r="1.5" />
        <circle cx="35" cy="15" r="1" />
        <circle cx="50" cy="20" r="2" />
        <circle cx="65" cy="25" r="1" />
        <circle cx="80" cy="30" r="1.5" />
        <circle cx="95" cy="35" r="1" />
        <circle cx="10" cy="40" r="2" />
        <circle cx="25" cy="45" r="1" />
        <circle cx="40" cy="50" r="1.5" />
        <circle cx="55" cy="55" r="1" />
        <circle cx="70" cy="60" r="2" />
        <circle cx="85" cy="65" r="1" />
        <circle cx="15" cy="75" r="1.5" />
        <circle cx="30" cy="80" r="1" />
        <circle cx="45" cy="85" r="2" />
        <circle cx="60" cy="90" r="1" />
        <circle cx="75" cy="95" r="1.5" />
        <circle cx="90" cy="5" r="1" />
      </g>
    </pattern>
  </defs>
  <rect width="400" height="400" fill="url(#sandPattern)" />
</svg>